# xmcd
#
# Track frame offsets: 
#        180
#        13429
#        21319
#        38043
#        53202
#        72946
#        85542
#        101646
#        112856
#        124107
#        138365
#        153754
#        171085
#        185110
#        201850
#        213019
#        226142
#        241095
#        252267
#        265389
#
# Disc length: 3716 seconds
#
# Revision: 0
# Processed by: cddbd v1.5.2PL0 Copyright (c) Steve Scherf et al.
# Submitted via: ExactAudioCopy v1.0b4
#
DISCID=0c0e8214
DTITLE=银霞 - 最佳民谣集
DYEAR=1998
DGENRE=Pop
TTITLE0=你那好冷的小手
TTITLE1=蜗牛与黄鹂鸟
TTITLE2=我来弹你来唱
TTITLE3=白鸽子的天空
TTITLE4=偶然
TTITLE5=花雨伞
TTITLE6=问吉他
TTITLE7=捉泥鳅
TTITLE8=梦的衣裳
TTITLE9=小秘密
TTITLE10=橄榄树
TTITLE11=我爱老爷车
TTITLE12=云知道你是谁
TTITLE13=欢颜
TTITLE14=西风的故乡
TTITLE15=快乐的歌
TTITLE16=泥泞中的小花
TTITLE17=问候歌
TTITLE18=回答
TTITLE19=兰花草
EXTD=
EXTT0=
EXTT1=
EXTT2=
EXTT3=
EXTT4=
EXTT5=
EXTT6=
EXTT7=
EXTT8=
EXTT9=
EXTT10=
EXTT11=
EXTT12=
EXTT13=
EXTT14=
EXTT15=
EXTT16=
EXTT17=
EXTT18=
EXTT19=
PLAYORDER=
